<?xml version="1.0" encoding="UTF-8"?>
<!DOCTYPE svg PUBLIC "-//W3C//DTD SVG 1.1//EN" "http://www.w3.org/Graphics/SVG/1.1/DTD/svg11.dtd">
<!-- Creator: CorelDRAW 2019 (64-Bit) -->
<svg xmlns="http://www.w3.org/2000/svg" xml:space="preserve" width="18.6266mm" height="15.2398mm" version="1.1" style="shape-rendering:geometricPrecision; text-rendering:geometricPrecision; image-rendering:optimizeQuality; fill-rule:evenodd; clip-rule:evenodd"
viewBox="0 0 1862.66 1523.98"
 xmlns:xlink="http://www.w3.org/1999/xlink"
 xmlns:xodm="http://www.corel.com/coreldraw/odm/2003">
 <defs>
  <style type="text/css">
   <![CDATA[
    .fil0 {fill:#F58634}
    .fil1 {fill:#F58634;fill-rule:nonzero}
   ]]>
  </style>
 </defs>
 <g id="Слой_x0020_1">
  <metadata id="CorelCorpID_0Corel-Layer"/>
  <g id="_2708532102352">
   <path class="fil0" d="M89.61 1218.48l31.35 0c2.11,0 3.82,1.71 3.82,3.81l0 31.76c0,2.1 -1.69,3.83 -3.82,3.83l-31.35 0c-2.1,0 -3.82,-1.72 -3.82,-3.83l0 -31.76c0,-2.1 1.72,-3.81 3.82,-3.81z"/>
   <path class="fil0" d="M183.05 1311.2l0.37 0 0.36 0 0.36 0 0.36 0 0.36 0 0.36 0 0.36 0 0.36 0 0.35 0 0.36 0 0.36 0 0.36 0 0.36 0 0.37 0 0.35 0 0.37 0 0.35 0 0.36 0 0.37 0 0.35 0 0.36 0 0.36 0 0.36 0 0.37 0 0.35 0 0.36 0 0.36 0 0.36 0 0.36 0 0.35 0 0.37 0 0.36 0 0.36 0 0.35 0 0.37 0 0.36 0 0.36 0 0.36 0 0.34 0 0.36 0 0.38 0 0.36 0 0.36 0 0.36 0 0.34 0 0.38 0 0.36 0 0.35 0 0.36 0 0.35 0 0.38 0 0.36 0 0.36 0 0.35 0 0.36 0 0.36 0 0.36 0 0.36 0 0.36 0 0.35 0 0.35 0 0.38 0 0.36 0 0.36 0 0 0 0.09 0 0 0 0.1 0 0 0 0.09 0.01 0 0 0.1 0.01 0 0 0.11 0.01 0 0 0.08 0.01 0 0 0.09 0.03 0 0 0.09 0.01 0 0 0.09 0.01 0 0 0.19 0.06 0 0 0.08 0.02 0 0 0.09 0.03 0 0 0.08 0.02 0 0 0.1 0.03 0 0 0.08 0.05 0 0 0.08 0.04 0 0 0.07 0.04 0.02 0 0.08 0.04 0.07 0.04 0 0 0.09 0.05 0.08 0.03 0.08 0.05 0 0 0.07 0.06 0 0 0.08 0.05 0 0 0.07 0.05 0 0 0.06 0.06 0 0 0.15 0.11 0 0 0.06 0.07 0 0 0.07 0.05 0.06 0.07 0.07 0.05 0.05 0.07 0.08 0.08 0 0 0.06 0.06 0 0 0.04 0.07 0 0.01 0.05 0.06 0.11 0.16 0 0 0.06 0.06 0 0.01 0.05 0.07 0.04 0.08 0 0 0.04 0.08 0 0 0.04 0.09 0 0 0.05 0.07 0 0 0.04 0.1 0 0 0.03 0.07 0 0 0.04 0.09 0 0 0.03 0.09 0 0 0.04 0.09 0 0 0.03 0.07 0 0 0.01 0.09 0 0 0.03 0.1 0 0 0.02 0.09 0 0 0.02 0.08 0 0 0.02 0.1 0 0 0.01 0.09 0 0 0.03 0.09 0 0 0.01 0.1 0 0 0.01 0.09 0 0 0 0.1 0 0 0.01 0.1 0 0 0 0.1 0 0 0 0.35 0 0.36 0 0.36 0 0.36 0 0.37 0 0.36 0 0.35 0 0.36 0 0.36 0 0.37 0 0.35 0 0.36 0 0.35 0 0.37 0 0.37 0 0.36 0 0.35 0 0.35 0 0.37 0 0.36 0 0.36 0 0.35 0 0.36 0 0.36 0 0.37 0 0.36 0 0.36 0 0.35 0 0.36 0 0.36 0 0.37 0 0.36 0 0.34 0 0.38 0 0.35 0 0.37 0 0.35 0 0.36 0 0.36 0 0.36 0 0.36 0 0.35 0 0.36 0 0.37 0 0.36 0 0.36 0 0.36 0 0.35 0 0.37 0 0.36 0 0.35 0 0.37 0 0.36 0 0.36 0 0.36 0 0.36 0 0.34 0 0.37 0 0.37 0 0.35 0 0.36 0 0.37 0 0.36 0 0.36 0 0.01 0 0.08 0 0 -0.01 0.09 0 0 0 0.1 0 0 -0.01 0.09 0 0.01 -0.01 0.08 0 0 -0.03 0.11 0 0 -0.01 0.09 0 0.01 -0.02 0.08 0 0 -0.02 0.09 0 0 -0.02 0.09 0 0.01 -0.03 0.08 0 0 -0.01 0.08 0 0 -0.03 0.1 0 0 -0.04 0.08 0 0 -0.03 0.09 0 0 -0.04 0.08 0 0 -0.03 0.09 0 0 -0.04 0.08 0 0 -0.05 0.08 0 0 -0.04 0.08 0 0.01 -0.04 0.08 0 0 -0.04 0.08 -0.05 0.08 0 0 -0.06 0.06 0 0 -0.11 0.15 -0.05 0.07 0 0 -0.04 0.08 0 0 -0.06 0.07 0 0 -0.08 0.06 -0.05 0.06 -0.07 0.06 -0.06 0.09 -0.07 0.05 0 0 -0.06 0.05 0 0 -0.15 0.11 0 0 -0.06 0.07 0 0 -0.07 0.06 0 0 -0.08 0.05 0 0 -0.07 0.04 0 0 -0.08 0.04 -0.08 0.05 -0.09 0.06 0 0 -0.07 0.03 -0.08 0.04 -0.02 0 -0.07 0.04 0 0 -0.08 0.04 0 0 -0.08 0.04 0 0 -0.1 0.02 0 0 -0.08 0.03 0 0 -0.09 0.04 0 0 -0.08 0.03 0 0 -0.19 0.05 0 0 -0.09 0.01 0 0 -0.09 0.01 0 0 -0.09 0.02 0 0 -0.08 0.01 0 0 -0.11 0.01 0 0 -0.1 0.02 0 0 -0.09 0.01 0 0 -0.1 0 0 0 -0.09 0 0 0 -0.36 0 -0.36 0 -0.38 0 -0.35 0 -0.35 0 -0.36 0 -0.36 0 -0.36 0 -0.36 0 -0.36 0 -0.35 0 -0.36 0 -0.36 0 -0.38 0 -0.35 0 -0.36 0 -0.35 0 -0.36 0 -0.38 0 -0.34 0 -0.36 0 -0.36 0 -0.36 0 -0.38 0 -0.36 0 -0.34 0 -0.36 0 -0.36 0 -0.36 0 -0.37 0 -0.35 0 -0.36 0 -0.36 0 -0.37 0 -0.35 0 -0.36 0 -0.36 0 -0.36 0 -0.36 0 -0.35 0 -0.37 0 -0.36 0 -0.36 0 -0.36 0 -0.35 0 -0.37 0 -0.36 0 -0.35 0 -0.37 0 -0.35 0 -0.37 0 -0.36 0 -0.36 0 -0.36 0 -0.36 0 -0.35 0 -0.36 0 -0.36 0 -0.36 0 -0.36 0 -0.36 0 -0.36 0 -0.36 0 -0.37 0 0 0 -0.01 0 0 0 -0.03 0 -0.01 0 0 0 -0.02 0 -0.01 0 -0.01 0 -0.01 0 -0.01 0 -0.02 0 -0.01 0 -0.01 0 -0.02 0 -0.01 0 0 0 0 0 -0.01 0 -0.02 0 -0.01 0 -0.01 0 -0.01 -0.01 -0.02 0 -0.02 0 -0.02 0 0 0 -0.01 0 -0.01 0 -0.01 0 -0.01 0 -0.01 0 -0.01 0 -0.02 -0.02 0 0 -0.01 0 0 0 -0.02 0 -0.01 0 -0.01 0 -0.02 -0.01 -0.02 0 -0.01 0 0 0 0 0 -0.01 0 -0.01 0 -0.02 -0.01 -0.01 0 -0.02 0 -0.01 0 -0.01 0 -0.01 0 -0.01 0 -0.03 -0.01 -0.02 0 -0.01 0 0 -0.01 -0.01 0 -0.01 0 -0.01 0 -0.01 0 -0.01 -0.01 0 0 -0.03 0 -0.01 0 0 0 -0.01 0 0 0 -0.01 0 -0.02 0 -0.01 0 0 0 -0.02 -0.01 -0.01 0 -0.01 0 0 0 -0.01 0 0 0 -0.02 -0.01 -0.01 0 -0.02 -0.02 -0.01 0 -0.01 0 0 0 -0.07 -0.01 -0.01 0 -0.04 -0.01 -0.01 -0.01 0 0 0 0 -0.01 0 0 0 -0.02 -0.01 -0.01 0 0 0 -0.01 -0.01 -0.01 0 0 0 -0.01 0 -0.01 0 -0.01 0 0 0 -0.01 0 -0.02 0 -0.01 -0.03 -0.01 0 -0.01 0 -0.02 -0.01 -0.01 -0.01 0 0 0 0 -0.02 0 -0.01 -0.01 -0.01 0 0 0 -0.01 -0.01 -0.01 0 -0.02 0 0 -0.01 0 0 -0.01 0 -0.02 0 -0.01 0 0 0 -0.03 -0.01 -0.04 -0.03 -0.04 -0.01 -0.02 -0.01 -0.07 -0.03 0 0 -0.06 -0.03 -0.12 -0.05 -0.06 -0.03 -0.01 -0.02 -0.07 -0.03 0 -0.01 -0.04 -0.02 -0.19 -0.11 -0.01 0 -0.05 -0.04 -0.03 -0.01 -0.03 -0.03 -0.05 -0.05 -0.04 -0.05 0 0 -0.07 -0.04 -0.02 0 -0.03 -0.04 -0.04 -0.03 -0.01 -0.01 -0.04 -0.04 -0.02 0 -0.04 -0.05 -0.01 0 -0.05 -0.07 -0.01 -0.02 -0.04 -0.03 -0.04 -0.03 -0.01 -0.01 -0.04 -0.05 0 0 -0.04 -0.05 -0.03 -0.01 -0.03 -0.03 -0.03 -0.04 0 -0.03 -0.05 -0.05 0 -0.01 -0.05 -0.04 -0.01 -0.02 -0.04 -0.03 -0.02 -0.04 0 -0.03 -0.04 -0.05 0 -0.01 -0.04 -0.04 -0.01 -0.01 -0.03 -0.07 -0.02 -0.01 -0.02 -0.04 -0.02 -0.04 -0.01 -0.01 -0.04 -0.07 0 0 -0.04 -0.06 -0.01 -0.03 -0.02 -0.05 -0.02 -0.03 -0.01 -0.01 -0.02 -0.07 0 0 -0.03 -0.06 0 -0.03 -0.03 -0.05 -0.01 -0.03 -0.01 -0.02 -0.03 -0.07 0 -0.01 -0.01 -0.06 -0.02 -0.01 -0.03 -0.07 0 -0.03 -0.01 -0.03 -0.02 -0.06 -0.02 -0.07 0 0 -0.01 -0.08 -0.01 -0.02 -0.01 -0.05 -0.01 -0.04 -0.01 -0.03 -0.01 -0.05 0 -0.01 -0.01 -0.08 -0.01 -0.01 -0.01 -0.06 0 -0.05 0 -0.03 -0.01 -0.05 0 -0.02 -0.01 -0.07 0 -0.01 0 -0.07 -0.01 -0.03 0 -0.04 0 -0.05 0 -0.02 0 -0.06 0 -0.01 0 -0.36 0 -0.36 0 -0.37 0 -0.36 0 -0.35 0 -0.37 0 -0.37 0 -0.34 0 -0.36 0 -0.36 0 -0.36 0 -0.36 0 -0.37 0 -0.35 0 -0.36 0 -0.37 0 -0.35 0 -0.36 0 -0.36 0 -0.36 0 -0.37 0 -0.36 0 -0.35 0 -0.36 0 -0.36 0 -0.36 0 -0.36 0 -0.35 0 -0.37 0 -0.35 0 -0.38 0 -0.34 0 -0.36 0 -0.37 0 -0.36 0 -0.36 0 -0.35 0 -0.36 0 -0.36 0 -0.37 0 -0.36 0 -0.36 0 -0.35 0 -0.36 0 -0.36 0 -0.37 0 -0.35 0 -0.35 0 -0.36 0 -0.37 0 -0.37 0 -0.35 0 -0.36 0 -0.35 0 -0.37 0 -0.36 0 -0.36 0 -0.35 0 -0.36 0 -0.37 0 -0.36 0 -0.36 0 -0.36 0 -0.35 0 0 0 -0.05 0 -0.04 0 -0.01 0 -0.03 0 -0.04 0 -0.03 0.01 -0.01 0 -0.05 0 -0.04 0 0 0.01 -0.03 0 -0.05 0 -0.01 0 -0.02 0.01 -0.06 0 -0.02 0 -0.01 0.01 -0.04 0 -0.04 0 0 0.01 -0.04 0.01 -0.05 0 0 0 -0.03 0.01 -0.05 0.01 -0.02 0 -0.02 0.01 -0.04 0.01 -0.02 0 -0.01 0.01 -0.04 0.02 -0.08 0.01 -0.03 0.01 -0.03 0 -0.02 0.02 -0.04 0 -0.03 0 -0.01 0.02 -0.04 0.01 -0.02 0 0 0.02 -0.04 0.01 -0.04 0 -0.01 0.01 -0.03 0.02 -0.04 0.01 -0.02 0 -0.03 0.02 -0.02 0.02 -0.04 0 0 0.01 -0.04 0.02 -0.02 0 -0.01 0 -0.04 0.02 -0.03 0.01 -0.03 0.01 -0.01 0.02 -0.04 0.01 -0.02 0 -0.01 0.03 -0.03 0.01 -0.04 0.01 -0.01 0.01 -0.04 0.03 -0.02 0.01 -0.02 0.01 0 0.01 -0.04 0.02 -0.04 0 0 0.02 -0.04 0.05 -0.05 0 -0.01 0.04 -0.06 0.03 -0.04 0.06 -0.1 0.02 -0.02 0.04 -0.04 0 -0.01 0.02 -0.03 0.03 -0.02c0.68,-0.85 1.73,-1.39 2.9,-1.39l0 0z"/>
   <path class="fil0" d="M94.35 1412.47l-9.69 0 0 -130.69 39.55 0c20.69,0 37.64,16.94 37.64,37.62l0 5.46 0 0.23 0 0.21 0 0.23 0 0.21 0 0.23 0 0.23 0 0.21 0 0.23 0 0.22 0 0.22 0 0.22 0 0.22 0 0.23 0 0.21 0 0.23 0 0.23 0 0.21 0 0.22 0 0.23 0 0.23 0 0.21 0 0.22 0 0.23 0 0.22 0 0.22 0 0.23 0 0.22 0 0.23 0 0.22 0 0.22 0 0.21 0 0.24 0 0.21 0 0.22 0 0.23 0 0.22 0 0.22 0 0.21 0 0.24 0 0.22 0 0.22 0 0.23 0 0.22 0 0.22 0 0.22 0 0.22 0 0.23 0 0.21 0 0.23 0 0.23 0 0.21 0 0.23 0 0.22 0 0.23 0 0.21 0 0.23 0 0.22 0 0.21 0 0.24 0 0.21 0 0.23 0 0.23 0 0.21 0 0.22 0 0.34c0,7.57 -2.28,14.85 -6.52,21.1 -5.14,7.53 -12.95,13.14 -22.05,15.41 -2.36,0.57 -4.66,0.92 -7.09,1.05l-25.26 0c-3.62,0 -6.58,2.96 -6.58,6.59l0 28.9z"/>
   <path class="fil0" d="M128.56 1412.47l-16.06 0c-0.86,-0.36 -1.46,-1.21 -1.46,-2.2l0 -14.2c0,-1.32 1.07,-2.39 2.39,-2.39l14.21 0c1.3,0 2.39,1.07 2.39,2.39l0 14.2c0,0.99 -0.61,1.84 -1.47,2.2z"/>
   <path class="fil0" d="M250 1317.58l17.8 0c1.61,0 2.9,1.3 2.9,2.9l0 17.8c0,1.6 -1.29,2.91 -2.9,2.91l-17.8 0c-1.6,0 -2.9,-1.31 -2.9,-2.91l0 -17.8c0,-1.6 1.3,-2.9 2.9,-2.9z"/>
   <path class="fil0" d="M184.56 1376.82l14.06 0c1.26,0 2.3,1.03 2.3,2.31l0 14.04c0,1.27 -1.04,2.3 -2.3,2.3l-14.06 0c-1.25,0 -2.28,-1.03 -2.28,-2.3l0 -14.04c0,-1.28 1.03,-2.31 2.28,-2.31z"/>
   <path class="fil0" d="M180.69 1241.47l21.81 0c1.99,0 3.58,1.6 3.58,3.56l0 21.83c0,1.96 -1.59,3.58 -3.58,3.58l-21.81 0c-1.96,0 -3.57,-1.62 -3.57,-3.58l0 -21.83c0,-1.96 1.61,-3.56 3.57,-3.56z"/>
   <path class="fil0" d="M353.3 1363.1c-13.94,0 -25.44,-4.64 -34.55,-13.9 -9.08,-9.27 -13.63,-20.7 -13.63,-34.29 0,-13.69 4.55,-25.13 13.63,-34.36 9.11,-9.22 20.61,-13.84 34.55,-13.84 8.39,0 16.14,1.96 23.23,5.89 7.12,3.93 12.65,9.25 16.63,15.95l-15.76 9.15c-2.3,-4.16 -5.56,-7.4 -9.8,-9.74 -4.22,-2.34 -8.99,-3.49 -14.3,-3.49 -8.98,0 -16.24,2.81 -21.77,8.46 -5.51,5.65 -8.27,12.97 -8.27,21.98 0,8.92 2.76,16.18 8.27,21.84 5.53,5.65 12.79,8.46 21.77,8.46 5.31,0 10.1,-1.16 14.37,-3.5 4.3,-2.34 7.53,-5.54 9.73,-9.6l15.76 9.13c-3.98,6.72 -9.48,12.04 -16.55,15.97 -7.06,3.92 -14.82,5.89 -23.31,5.89zm261.89 -13.97c-9.36,9.3 -20.76,13.97 -34.18,13.97 -13.4,0 -24.78,-4.67 -34.09,-13.97 -9.3,-9.31 -13.96,-20.72 -13.96,-34.22 0,-13.51 4.66,-24.91 13.96,-34.23 9.31,-9.32 20.69,-13.97 34.09,-13.97 13.42,0 24.82,4.65 34.18,13.97 9.33,9.32 14.01,20.72 14.01,34.23 0,13.5 -4.68,24.91 -14.01,34.22zm-55.48 -12.46c5.72,5.71 12.84,8.54 21.3,8.54 8.47,0 15.58,-2.83 21.33,-8.54 5.73,-5.69 8.59,-12.95 8.59,-21.76 0,-8.82 -2.86,-16.13 -8.59,-21.85 -5.75,-5.74 -12.86,-8.59 -21.33,-8.59 -8.46,0 -15.58,2.85 -21.3,8.59 -5.75,5.72 -8.62,13.03 -8.62,21.85 0,8.81 2.87,16.07 8.62,21.76zm306.73 -68.11l0 92.68 -18.13 0 0 -60.1 -26.08 43.02 -2.13 0 -26.07 -42.89 0 59.97 -18.27 0 0 -92.68 18.8 0 26.61 43.83 26.48 -43.83 18.79 0zm185.48 0c8.9,0 16.41,3.01 22.51,9.01 6.07,6 9.13,13.37 9.13,22.11 0,8.75 -3.06,16.11 -9.13,22.12 -6.1,5.99 -13.61,8.99 -22.51,8.99l-16.29 0 0 30.45 -18.26 0 0 -92.68 34.55 0zm0 45.15c3.89,0 7.1,-1.35 9.67,-4.03 2.56,-2.68 3.84,-6.02 3.84,-10 0,-4.05 -1.28,-7.41 -3.84,-10.07 -2.57,-2.64 -5.78,-3.96 -9.67,-3.96l-16.29 0 0 28.06 16.29 0zm227.45 47.53l-5.56 -16.68 -36.94 0 -5.57 16.68 -19.72 0 32.43 -92.68 22.63 0 32.59 92.68 -19.86 0zm-36.69 -33.76l25.42 0 -12.71 -37.87 -12.71 37.87zm252.87 -58.92l18.27 0 0 92.68 -13.91 0 -39.7 -56.65 0 56.65 -18.27 0 0 -92.68 13.89 0 39.72 56.53 0 -56.53zm242.53 0l-31.77 56.53 0 36.15 -18.14 0 0 -36.15 -31.64 -56.53 20.65 0 20.12 38.66 20.14 -38.66 20.64 0z"/>
   <path class="fil1" d="M148.45 1212.64l1624.85 0 4.7 0 0 4.7 0 195.13 0 4.71 -4.7 0 -1626.6 0 -4.7 0 0 -4.71 0 -20.01 0 -0.22 0.03 -0.31c1.05,-8.93 4.89,-17.03 10.62,-23.38 5.77,-6.41 13.48,-11.05 22.18,-13.02l0.02 0c8.86,-1.97 22.17,-1.58 33.58,-1.24 3.65,0.1 7.07,0.21 10.79,0.21 0.93,0 1.77,-0.38 2.38,-0.99 0.61,-0.61 0.99,-1.45 0.99,-2.38l0 -49.32c0,-0.93 -0.38,-1.77 -0.99,-2.38l0 0c-0.61,-0.6 -1.45,-0.98 -2.38,-0.98l-33.32 0c-10.88,0 -20.85,-4.18 -28.38,-11 -7.59,-6.88 -12.69,-16.47 -13.74,-27.21l-0.04 -0.37 0 -0.07 0 -42.46 0 -4.7 4.71 0zm1620.14 9.41l-1615.43 0 0 37.66c0.88,8.19 4.83,15.51 10.65,20.79 5.84,5.29 13.6,8.53 22.09,8.53l33.32 0c3.53,0 6.72,1.44 9.03,3.75l0 0.02c2.32,2.31 3.75,5.5 3.75,9.01l0 49.32c0,3.52 -1.43,6.72 -3.75,9.03 -2.31,2.32 -5.5,3.75 -9.03,3.75 -2.69,0 -6.74,-0.12 -11.04,-0.25 -10.89,-0.32 -23.57,-0.69 -31.29,1.03l0 0c-6.75,1.52 -12.75,5.15 -17.26,10.15 -4.39,4.87 -7.36,11.05 -8.22,17.86l0 15.07 1617.18 0 0 -185.72z"/>
   <path class="fil1" d="M1579.58 1012.63l0 182.6 -39.73 0 0 -18.18c-11.7,14.99 -28.33,22.48 -49.89,22.48 -20.74,0 -38.44,-7.84 -53.13,-23.55 -14.68,-15.71 -22.02,-34.96 -22.02,-57.75 0,-22.79 7.34,-42.04 22.02,-57.75 14.69,-15.7 32.39,-23.55 53.13,-23.55 21.56,0 38.19,7.49 49.89,22.48l0 -24.93 39.73 -21.85zm-112.88 136.86c8.11,8.12 18.33,12.17 30.65,12.17 12.31,0 22.48,-4.05 30.49,-12.17 8,-8.11 12.01,-18.53 12.01,-31.26 0,-12.72 -4.01,-23.15 -12.01,-31.25 -8.01,-8.12 -18.18,-12.18 -30.49,-12.18 -12.32,0 -22.54,4.06 -30.65,12.18 -8.1,8.1 -12.17,18.53 -12.17,31.25 0,12.73 4.07,23.15 12.17,31.26z"/>
   <polygon class="fil1" points="1579.58,979.64 1579.58,995.83 1539.85,1017.68 1539.85,1001.49 "/>
   <path class="fil1" d="M1266.36 1149.49c8.01,8.12 18.17,12.17 30.49,12.17 12.32,0 22.54,-4.05 30.64,-12.17 8.12,-8.11 12.17,-18.53 12.17,-31.26 0,-12.73 -4.05,-23.15 -12.17,-31.25 -8.1,-8.12 -18.32,-12.17 -30.64,-12.17 -12.32,0 -22.48,4.05 -30.49,12.17 -8,8.1 -12,18.52 -12,31.25 0,12.73 4,23.15 12,31.26zm73.3 -108.26l39.74 0 0 154 -39.74 0 0 -18.18c-11.91,14.99 -28.64,22.48 -50.19,22.48 -20.54,0 -38.15,-7.84 -52.83,-23.55 -14.67,-15.71 -22.01,-34.96 -22.01,-57.75 0,-22.79 7.34,-42.04 22.01,-57.75 14.68,-15.7 32.29,-23.55 52.83,-23.55 21.55,0 38.28,7.49 50.19,22.48l0 -18.18z"/>
   <path class="fil1" d="M1150.87 1067.73c3.7,-9.85 9.81,-17.25 18.33,-22.19 8.52,-4.92 18.01,-7.38 28.48,-7.38l0 44.35c-12.11,-1.44 -22.94,1.02 -32.48,7.4 -9.56,6.35 -14.33,16.93 -14.33,31.71l0 73.61 -39.72 0 0 -154 39.72 0 0 26.5z"/>
   <polygon class="fil1" points="1100.97,979.64 1100.97,1020.3 1042.78,1020.3 1042.78,1195.23 1000.27,1195.23 1000.27,1020.3 942.37,1020.3 942.37,979.64 "/>
   <path class="fil1" d="M856.76 1036.93c16.83,0 30.74,5.63 41.72,16.94 10.99,11.29 16.48,26.89 16.48,46.8l0 94.56 -39.73 0 0 -89.63c0,-10.26 -2.77,-18.11 -8.32,-23.55 -5.53,-5.45 -12.92,-8.16 -22.16,-8.16 -10.27,0 -18.48,3.17 -24.65,9.55 -6.16,6.35 -9.24,15.9 -9.24,28.63l0 83.16 -39.72 0 0 -154 39.72 0 0 17.26c9.65,-14.38 24.95,-21.56 45.9,-21.56z"/>
   <path class="fil1" d="M624.08 1148.72c7.9,8.01 17.81,12.01 29.72,12.01 11.9,0 21.87,-4 29.87,-12.01 8.01,-8.01 12.02,-18.17 12.02,-30.49 0,-12.32 -4.01,-22.48 -12.02,-30.49 -8,-8.01 -17.97,-12.01 -29.87,-12.01 -11.91,0 -21.82,4 -29.72,12.01 -7.91,8.01 -11.86,18.17 -11.86,30.49 0,12.32 3.95,22.48 11.86,30.49zm87.62 27.26c-15.81,15.71 -35.11,23.55 -57.9,23.55 -22.79,0 -42.04,-7.84 -57.75,-23.55 -15.71,-15.71 -23.55,-34.96 -23.55,-57.75 0,-22.79 7.84,-42.04 23.55,-57.75 15.71,-15.7 34.96,-23.55 57.75,-23.55 22.79,0 42.09,7.85 57.9,23.55 15.81,15.71 23.71,34.96 23.71,57.75 0,22.79 -7.9,42.04 -23.71,57.75z"/>
   <path class="fil1" d="M549.4 1079.43l-34.8 0 0 64.06c0,5.34 1.33,9.24 3.99,11.7 2.68,2.46 6.58,3.84 11.71,4.16 5.13,0.31 11.51,0.26 19.1,-0.15l0 36.03c-27.31,3.08 -46.56,0.51 -57.75,-7.71 -11.18,-8.2 -16.78,-22.88 -16.78,-44.03l0 -64.06 -26.79 0 0 -38.2 26.79 0 0 -21.26 39.73 -21.85 0 43.11 34.8 0 0 38.2z"/>
   <path class="fil1" d="M312.26 1103.76l78.53 0c-2.26,-10.48 -6.93,-18.28 -14.01,-23.41 -7.08,-5.13 -15.15,-7.7 -24.17,-7.7 -10.69,0 -19.51,2.72 -26.5,8.16 -6.98,5.44 -11.6,13.09 -13.85,22.95zm0.61 30.8c5.33,19.29 19.81,28.94 43.42,28.94 10.83,0 19.8,-2.61 26.88,-7.84l24.79 27.12c-13.77,11.17 -31.19,16.75 -52.28,16.75 -25.46,0 -45.89,-7.69 -61.29,-23.09 -15.39,-15.4 -23.1,-34.8 -23.1,-58.21 0,-23.2 7.59,-42.55 22.79,-58.05 15.2,-15.51 34.7,-23.25 58.53,-23.25 22.57,0 41.21,7.79 55.88,23.4 14.69,15.61 22.02,34.91 22.02,57.9 0,5.14 -0.51,10.58 -1.54,16.33l-116.1 0z"/>
   <path class="fil1" d="M1656.57 1103.76l78.53 0c-2.26,-10.48 -6.92,-18.28 -14.02,-23.41 -7.08,-5.13 -15.13,-7.7 -24.17,-7.7 -10.67,0 -19.5,2.72 -26.48,8.16 -6.99,5.44 -11.6,13.09 -13.86,22.95zm0.61 30.8c5.35,19.29 19.82,28.94 43.43,28.94 10.84,0 19.79,-2.61 26.86,-7.84l24.81 27.12c-13.78,11.17 -31.21,16.75 -52.29,16.75 -25.46,0 -45.88,-7.69 -61.28,-23.09 -15.4,-15.4 -23.1,-34.8 -23.1,-58.21 0,-23.2 7.6,-42.55 22.79,-58.05 15.19,-15.51 34.7,-23.25 58.51,-23.25 22.59,0 41.21,7.79 55.9,23.4 14.67,15.61 22.02,34.91 22.02,57.9 0,5.14 -0.51,10.58 -1.53,16.33l-116.12 0z"/>
   <path class="fil1" d="M176.13 1155.49c7.18,0 13.14,-2.4 17.86,-7.23 4.72,-4.82 7.09,-10.93 7.09,-18.33 0,-7.19 -2.37,-13.18 -7.09,-18.01 -4.72,-4.82 -10.68,-7.24 -17.86,-7.24l-48.97 0 0 41.61 0 8.12 -42.5 0 0 -174.77 85 0c18.48,0 34.03,5.7 46.65,17.1 12.63,11.39 18.95,25.92 18.95,43.57 0,17.87 -6.78,32.24 -20.33,43.13 18.88,10.87 28.33,27.3 28.33,49.26 0,18.28 -6.47,33.27 -19.39,44.98 -12.94,11.69 -28.86,17.55 -47.74,17.55l-27.68 0 0 -39.74 27.68 0zm-6.47 -136.11l-42.5 0 0 47.42 42.5 0c6.56,0 12.07,-2.26 16.48,-6.78 4.42,-4.51 6.62,-10.16 6.62,-16.93 0,-6.79 -2.16,-12.42 -6.47,-16.94 -4.32,-4.52 -9.85,-6.77 -16.63,-6.77z"/>
   <path class="fil0" d="M702.7 500.81l107.37 0c9.66,0 17.56,7.91 17.56,17.56l0 107.38c0,9.65 -7.9,17.56 -17.56,17.56l-107.37 0c-9.66,0 -17.57,-7.91 -17.57,-17.56l0 -107.38c0,-9.65 7.91,-17.56 17.57,-17.56z"/>
   <path class="fil0" d="M979 268.64l75.3 0c6.78,0 12.32,5.54 12.32,12.32l0 75.3c0,6.79 -5.54,12.33 -12.32,12.33l-75.3 0c-6.78,0 -12.32,-5.54 -12.32,-12.33l0 -75.3c0,-6.78 5.54,-12.32 12.32,-12.32z"/>
   <path class="fil0" d="M992.42 735.76l48.48 0c4.36,0 7.94,3.57 7.94,7.93l0 48.5c0,4.37 -3.58,7.93 -7.94,7.93l-48.48 0c-4.37,0 -7.94,-3.56 -7.94,-7.93l0 -48.5c0,-4.36 3.57,-7.93 7.94,-7.93z"/>
   <path class="fil0" d="M1218.23 531.3l61.39 0c5.53,0 10.05,4.52 10.05,10.05l0 61.39c0,5.53 -4.52,10.05 -10.05,10.05l-61.39 0c-5.53,0 -10.04,-4.52 -10.04,-10.05l0 -61.39c0,-5.53 4.51,-10.05 10.04,-10.05z"/>
   <path class="fil0" d="M838.54 106.8c16.44,0 29.21,12.91 29.21,29.21 0,65.3 0,130.6 0,195.89 6.43,65.52 62.08,117.16 129.22,117.16 38.34,0 76.69,0 115.04,0 15.31,0 27.83,12.53 27.83,27.84 0,56.74 0,113.47 0,170.21 0,15.31 -12.52,27.84 -27.83,27.84 -42.15,0 -110.86,-5.53 -149.65,3.14 -53.12,11.95 -94.19,56.69 -100.61,111.62l0 104.6c0,12.5 -10.22,22.72 -22.71,22.72l-135.29 0c-12.49,0 -22.71,-10.22 -22.71,-22.72l0 -135.27c0,-12.5 10.22,-22.72 22.71,-22.72l87.22 0c8.37,-0.44 16.28,-1.7 24.42,-3.65 31.38,-7.83 58.32,-27.16 76.07,-53.2 14.68,-21.58 22.49,-46.68 22.49,-72.8l0 -1.15 0 -0.76 0 -0.77 0 -0.77 0 -0.77 0 -0.76 0 -0.77 0 -0.77 0 -0.77 0 -0.76 0 -0.77 0 -0.77 0 -0.76 0 -0.77 0 -0.77 0 -0.76 0 -0.77 0 -0.77 0 -0.77 0 -0.76 0 -0.77 0 -0.77 0 -0.76 0 -0.77 0 -0.77 0 -0.77 0 -0.77 0 -0.76 0 -0.77 0 -0.77 0 -0.76 0 -0.77 0 -0.77 0 -0.76 0 -0.77 0 -0.77 0 -0.77 0 -0.77 0 -0.76 0 -0.77 0 -0.77 0 -0.76 0 -0.77 0 -0.77 0 -0.76 0 -0.77 0 -0.77 0 -0.77 0 -0.77 0 -0.76 0 -0.77 0 -0.77 0 -0.76 0 -0.77 0 -0.77 0 -0.76 0 -0.77 0 -0.77 0 -0.77 0 -0.76 0 -0.77 0 -0.77 0 -0.76 0 -0.77 0 -0.77 0 -18.81c0,-71.41 -58.42,-129.84 -129.84,-129.84 -61.69,0 -123.39,0 -185.08,0 -16.07,0 -29.22,-13.14 -29.22,-29.21 0,-80.85 0,-161.7 0,-242.55 0,-16.07 13.15,-29.21 29.22,-29.21 79.84,0 159.67,0 239.51,0zm-47.22 810.24c-0.92,0.11 -1.87,0.17 -2.83,0.17l-24.08 0 0 -0.17 26.91 0zm-44.44 -123.11l49.03 0c4.53,0 8.23,3.7 8.23,8.24l0 49.02c0,4.53 -3.7,8.24 -8.23,8.24l-49.03 0c-4.53,0 -8.23,-3.71 -8.23,-8.24l0 -49.02c0,-4.54 3.7,-8.24 8.23,-8.24zm240.3 -284.63l1.24 0 1.24 0 1.24 0 1.25 0 1.23 0 1.25 0 1.24 0 1.24 0 1.24 0 1.24 0 1.24 0 1.25 0 1.24 0 1.24 0 1.24 0 1.24 0 1.24 0 1.24 0 1.25 0 1.23 0 1.25 0 1.24 0 1.24 0 1.24 0 1.24 0 1.24 0 1.24 0 1.25 0 1.23 0 1.25 0 1.24 0 1.24 0 1.24 0 1.24 0 1.24 0 1.24 0 1.25 0 1.23 0 1.25 0 1.24 0 1.24 0 1.24 0 1.24 0 1.24 0 1.24 0 1.25 0 1.24 0 1.24 0 1.24 0 1.24 0 1.24 0 1.25 0 1.23 0 1.25 0 1.24 0 1.24 0 1.24 0 1.24 0 1.25 0 1.23 0 1.25 0 1.24 0 1.24 0 1.24 0 0.01 0 0.33 0 0 0 0.33 0.01 0 0 0.33 0.02 0 0 0.33 0.03 0 0 0.32 0.04 0 0 0.32 0.05 0.01 0 0.31 0.05 0 0 0.32 0.06 0 0 0.31 0.07 0.01 0 0.61 0.16 0.01 0 0.3 0.09 0.01 0 0.3 0.1 0 0 0.29 0.11 0.01 0 0.29 0.11 0 0 0.29 0.12 0.01 0 0.28 0.13 0.01 0 0.28 0.13 0 0 0.28 0.14 0.28 0.15 0 0 0.27 0.15 0.27 0.16 0.27 0.17 0 0 0.26 0.17 0 0 0.26 0.18 0 0 0.25 0.18 0 0 0.25 0.19 0 0 0.48 0.4 0 0 0.23 0.21 0 0 0.23 0.21 0.22 0.22 0.22 0.22 0.21 0.23 0.21 0.24 0 0 0.2 0.23 0 0.01 0.2 0.24 0 0 0.19 0.24 0.36 0.51 0 0 0.18 0.26 0 0.01 0.16 0.26 0.16 0.27 0 0 0.15 0.27 0 0.01 0.15 0.27 0 0 0.14 0.28 0 0.01 0.14 0.28 0 0 0.12 0.29 0 0 0.12 0.29 0 0 0.12 0.3 0 0 0.1 0.3 0 0 0.1 0.3 0 0 0.09 0.3 0 0.01 0.09 0.3 0 0.01 0.07 0.31 0 0 0.07 0.31 0 0 0.06 0.32 0 0 0.06 0.32 0 0 0.04 0.32 0 0.01 0.04 0.32 0 0 0.03 0.32 0 0.01 0.02 0.32 0 0.01 0.01 0.33 0 0 0.01 0.33 0 0.01 0 1.23 0 1.25 0 1.24 0 1.24 0 1.24 0 1.24 0 1.24 0 1.25 0 1.24 0 1.24 0 1.24 0 1.24 0 1.24 0 1.24 0 1.25 0 1.23 0 1.25 0 1.24 0 1.24 0 1.24 0 1.24 0 1.24 0 1.24 0 1.24 0 1.25 0 1.24 0 1.24 0 1.24 0 1.24 0 1.24 0 1.24 0 1.24 0 1.25 0 1.23 0 1.25 0 1.24 0 1.24 0 1.24 0 1.24 0 1.25 0 1.24 0 1.23 0 1.25 0 1.24 0 1.24 0 1.24 0 1.24 0 1.25 0 1.23 0 1.25 0 1.24 0 1.24 0 1.24 0 1.24 0 1.24 0 1.24 0 1.24 0 1.25 0 1.24 0 1.24 0 1.24 0 1.24 0 1.24 0 1.24 0 0.01 -0.01 0.33 0 0 -0.01 0.33 0 0 -0.02 0.33 0 0 -0.03 0.33 0 0 -0.04 0.32 0 0.01 -0.04 0.32 0 0 -0.06 0.32 0 0 -0.06 0.31 0 0.01 -0.07 0.31 0 0 -0.07 0.31 0 0 -0.09 0.31 0 0 -0.09 0.31 0 0 -0.1 0.3 0 0 -0.1 0.3 0 0 -0.12 0.29 0 0.01 -0.12 0.29 0 0 -0.12 0.28 0 0.01 -0.14 0.28 0 0 -0.14 0.28 0 0.01 -0.15 0.27 0 0.01 -0.15 0.27 0 0 -0.16 0.27 -0.16 0.26 0 0 -0.18 0.27 0 0 -0.36 0.5 -0.19 0.25 0 0 -0.2 0.24 0 0.01 -0.2 0.23 0 0 -0.21 0.24 -0.21 0.23 -0.22 0.22 -0.22 0.22 -0.23 0.21 0 0 -0.23 0.2 0 0.01 -0.48 0.4 0 0 -0.25 0.19 0 0 -0.25 0.18 0 0 -0.26 0.18 0 0 -0.26 0.17 0 0 -0.27 0.17 -0.27 0.16 -0.27 0.15 0 0 -0.28 0.15 -0.28 0.14 0 0 -0.28 0.13 -0.01 0 -0.28 0.13 -0.01 0 -0.29 0.12 0 0 -0.29 0.11 -0.01 0 -0.29 0.11 0 0 -0.3 0.09 -0.01 0 -0.3 0.1 -0.01 0 -0.61 0.16 -0.01 0 -0.31 0.07 0 0 -0.32 0.06 0 0 -0.31 0.05 -0.01 0 -0.32 0.05 0 0 -0.32 0.04 0 0 -0.33 0.03 0 0 -0.33 0.02 0 0 -0.33 0.01 0 0 -0.33 0 -0.01 0 -1.24 0 -1.24 0 -1.24 0 -1.25 0 -1.23 0 -1.25 0 -1.24 0 -1.24 0 -1.24 0 -1.24 0 -1.25 0 -1.23 0 -1.25 0 -1.24 0 -1.24 0 -1.24 0 -1.24 0 -1.24 0 -1.25 0 -1.24 0 -1.24 0 -1.24 0 -1.24 0 -1.24 0 -1.24 0 -1.25 0 -1.23 0 -1.25 0 -1.24 0 -1.24 0 -1.24 0 -1.24 0 -1.24 0 -1.24 0 -1.25 0 -1.23 0 -1.25 0 -1.24 0 -1.24 0 -1.24 0 -1.24 0 -1.24 0 -1.24 0 -1.25 0 -1.23 0 -1.25 0 -1.24 0 -1.24 0 -1.24 0 -1.24 0 -1.24 0 -1.24 0 -1.25 0 -1.24 0 -1.24 0 -1.24 0 -1.24 0 -1.24 0 -1.25 0 -1.23 0 -1.25 0 -1.24 0 -1.24 0 -1.24 0 -0.01 0 -0.03 0 -0.05 0 -0.04 0 -0.04 0 -0.05 0 -0.04 0 -0.04 0 -0.04 0 -0.04 0 -0.05 0 -0.04 -0.01 -0.05 0 -0.04 0 -0.04 0 -0.04 0 -0.03 0 -0.01 -0.01 -0.05 0 -0.04 0 -0.04 0 -0.04 -0.01 -0.04 0 -0.05 0 -0.04 0 -0.02 0 -0.03 0 -0.04 -0.01 -0.04 -0.01 -0.04 0 -0.04 0 -0.05 -0.01 -0.04 0 -0.04 0 -0.01 0 -0.03 -0.01 -0.04 -0.01 -0.04 0 -0.05 0 -0.04 -0.01 -0.04 0 -0.04 -0.01 -0.05 0 0 -0.01 -0.04 0 -0.03 0 -0.05 -0.01 -0.04 -0.01 -0.08 -0.01 -0.05 0 -0.03 -0.01 -0.01 0 -0.04 0 -0.04 -0.01 -0.08 -0.02 -0.04 0 -0.04 -0.01 -0.05 -0.01 -0.02 0 -0.02 -0.01 -0.04 0 -0.04 -0.01 -0.04 -0.01 -0.04 -0.01 -0.04 -0.01 -0.04 0 -0.04 -0.01 -0.02 0 -0.02 -0.01 -0.04 -0.01 -0.04 -0.01 -0.03 0 -0.03 -0.01 -0.03 0 -0.03 -0.02 -0.04 0 -0.03 -0.01 -0.02 0 -0.01 0 -0.06 -0.02 -0.03 -0.01 -0.07 -0.01 -0.03 -0.01 -0.03 -0.01 -0.03 0 -0.19 -0.05 -0.03 -0.01 -0.16 -0.05 -0.03 -0.01 -0.03 0 -0.03 -0.02 -0.03 0 0 0 -0.03 -0.01 -0.03 -0.01 -0.03 -0.01 -0.03 -0.01 -0.03 -0.01 -0.02 -0.01 -0.01 0 -0.03 -0.01 -0.04 -0.01 -0.03 -0.01 -0.02 -0.01 -0.04 -0.01 -0.03 -0.01 -0.03 -0.01 -0.03 -0.01 -0.06 -0.02 -0.03 -0.01 -0.03 -0.01 -0.03 -0.02 -0.03 0 -0.03 -0.01 -0.03 -0.02 -0.03 -0.01 -0.03 -0.01 -0.04 -0.01 -0.02 -0.01 -0.03 -0.01 -0.03 -0.01 -0.03 -0.01 -0.03 -0.02 -0.03 0 -0.03 -0.02 -0.1 -0.03 -0.13 -0.06 -0.16 -0.06 -0.06 -0.03 -0.23 -0.1 0 0 -0.21 -0.1 -0.44 -0.22 -0.19 -0.1 -0.02 -0.01 -0.21 -0.12 -0.05 -0.02 -0.16 -0.1 -0.62 -0.39 -0.01 -0.01 -0.18 -0.13 -0.08 -0.05 -0.12 -0.09 -0.19 -0.14 -0.19 -0.14 0 -0.01 -0.19 -0.15 -0.05 -0.04 -0.14 -0.12 -0.1 -0.08 -0.08 -0.07 -0.16 -0.14 -0.02 -0.02 -0.17 -0.17 -0.03 -0.02 -0.14 -0.14 -0.09 -0.08 -0.09 -0.1 -0.12 -0.12 -0.04 -0.05 -0.17 -0.17 -0.01 -0.01 -0.15 -0.17 -0.05 -0.07 -0.1 -0.11 -0.11 -0.12 -0.05 -0.07 -0.14 -0.18 -0.01 -0.01 -0.15 -0.19 -0.03 -0.05 -0.11 -0.14 -0.08 -0.11 -0.06 -0.09 -0.12 -0.16 -0.02 -0.03 -0.13 -0.21 -0.02 -0.03 -0.11 -0.17 -0.05 -0.09 -0.07 -0.12 -0.09 -0.15 -0.04 -0.06 -0.11 -0.21 -0.01 0 -0.1 -0.21 -0.05 -0.07 -0.07 -0.15 -0.06 -0.14 -0.04 -0.08 -0.1 -0.2 0 -0.02 -0.1 -0.22 -0.02 -0.05 -0.08 -0.17 -0.04 -0.12 -0.04 -0.11 -0.08 -0.19 -0.01 -0.04 -0.08 -0.23 -0.02 -0.03 -0.06 -0.2 -0.03 -0.1 -0.04 -0.14 -0.07 -0.24 -0.07 -0.24 0 0 -0.06 -0.24 -0.01 -0.07 -0.05 -0.17 -0.03 -0.14 -0.01 -0.1 -0.05 -0.22 0 -0.02 -0.04 -0.25 -0.01 -0.05 -0.03 -0.2 -0.02 -0.12 -0.01 -0.13 -0.02 -0.2 -0.01 -0.05 -0.02 -0.25 0 -0.03 -0.02 -0.23 0 -0.1 -0.01 -0.15 -0.01 -0.18 0 -0.08 0 -0.25 0 -0.01 0 -1.24 0 -1.24 0 -1.24 0 -1.24 0 -1.24 0 -1.24 0 -1.25 0 -1.24 0 -1.24 0 -1.24 0 -1.24 0 -1.24 0 -1.24 0 -1.24 0 -1.25 0 -1.23 0 -1.25 0 -1.24 0 -1.24 0 -1.24 0 -1.24 0 -1.25 0 -1.23 0 -1.24 0 -1.25 0 -1.24 0 -1.24 0 -1.24 0 -1.24 0 -1.25 0 -1.23 0 -1.25 0 -1.24 0 -1.24 0 -1.24 0 -1.24 0 -1.24 0 -1.24 0 -1.24 0 -1.25 0 -1.24 0 -1.24 0 -1.24 0 -1.24 0 -1.24 0 -1.24 0 -1.24 0 -1.25 0 -1.23 0 -1.25 0 -1.24 0 -1.24 0 -1.24 0 -1.24 0 -1.24 0 -1.24 0 -1.25 0 -1.24 0 -1.24 0 -1.24 0 -1.24 0 -1.24 0 -1.25 0 -1.23 0 -0.01 0 -0.14 0 -0.14 0 -0.05 0.01 -0.1 0 -0.14 0.01 -0.1 0 -0.04 0.01 -0.15 0.01 -0.14 0 0 0.01 -0.14 0.02 -0.15 0 -0.03 0.01 -0.11 0.02 -0.14 0 -0.08 0.01 -0.06 0.02 -0.14 0.02 -0.12 0 -0.02 0.02 -0.14 0.03 -0.14 0 -0.02 0.02 -0.11 0.03 -0.14 0.01 -0.07 0.02 -0.07 0.03 -0.14 0.03 -0.1 0 -0.03 0.03 -0.14 0.07 -0.27 0.04 -0.13 0.01 -0.06 0.03 -0.07 0.04 -0.14 0.03 -0.09 0.01 -0.03 0.04 -0.14 0.04 -0.13 0 0 0.05 -0.13 0.05 -0.13 0.01 -0.04 0.03 -0.09 0.05 -0.13 0.04 -0.08 0.02 -0.05 0.05 -0.12 0.05 -0.12 0 -0.01 0.05 -0.13 0.06 -0.12 0.01 -0.03 0.05 -0.09 0.05 -0.13 0.04 -0.07 0.02 -0.05 0.06 -0.12 0.05 -0.11 0.02 -0.01 0.06 -0.12 0.06 -0.12 0.01 -0.03 0.06 -0.09 0.06 -0.12 0.04 -0.06 0.03 -0.06 0.07 -0.12 0.06 -0.09 0.01 -0.03 0.07 -0.11 0.14 -0.22 0.02 -0.03 0.14 -0.2 0.08 -0.11 0.24 -0.34 0.08 -0.1 0.08 -0.11 0.03 -0.03 0.06 -0.08 0.08 -0.1c2.38,-2.93 6.02,-4.8 10.06,-4.8l0.01 0zm-322.5 -320l108.21 0c7.25,0 13.19,5.94 13.19,13.2l0 109.58c0,7.2 -5.89,13.19 -13.19,13.19l-108.21 0c-7.25,0 -13.19,-5.94 -13.19,-13.19l0 -109.58c0,-7.26 5.94,-13.2 13.19,-13.2z"/>
  </g>
 </g>
</svg>
