<?xml version="1.0" encoding="UTF-8"?>
<!DOCTYPE svg PUBLIC "-//W3C//DTD SVG 1.1//EN" "http://www.w3.org/Graphics/SVG/1.1/DTD/svg11.dtd">
<!-- Creator: CorelDRAW 2019 (64-Bit) -->
<svg xmlns="http://www.w3.org/2000/svg" xml:space="preserve" width="18.6266mm" height="15.2398mm" version="1.1" style="shape-rendering:geometricPrecision; text-rendering:geometricPrecision; image-rendering:optimizeQuality; fill-rule:evenodd; clip-rule:evenodd"
viewBox="0 0 1862.66 1523.98"
 xmlns:xlink="http://www.w3.org/1999/xlink"
 xmlns:xodm="http://www.corel.com/coreldraw/odm/2003">
 <defs>
  <style type="text/css">
   <![CDATA[
    .fil0 {fill:#F58634}
   ]]>
  </style>
 </defs>
 <g id="Слой_x0020_1">
  <metadata id="CorelCorpID_0Corel-Layer"/>
  <g id="_2708695741136">
   <path class="fil0" d="M536.44 742.51l186.75 0c16.8,0 30.54,13.74 30.54,30.54l0 186.75c0,16.8 -13.74,30.55 -30.54,30.55l-186.75 0c-16.8,0 -30.56,-13.75 -30.56,-30.55l0 -186.75c0,-16.8 13.76,-30.54 30.56,-30.54z"/>
   <path class="fil0" d="M1017 338.72l130.97 0c11.79,0 21.44,9.62 21.44,21.41l0 130.97c0,11.79 -9.65,21.45 -21.44,21.45l-130.97 0c-11.79,0 -21.43,-9.66 -21.43,-21.45l0 -130.97c0,-11.79 9.64,-21.41 21.43,-21.41z"/>
   <path class="fil0" d="M1040.32 1151.15l84.34 0c7.58,0 13.81,6.21 13.81,13.81l0 84.33c0,7.61 -6.23,13.8 -13.81,13.8l-84.34 0c-7.6,0 -13.79,-6.19 -13.79,-13.8l0 -84.33c0,-7.6 6.19,-13.81 13.79,-13.81z"/>
   <path class="fil0" d="M1433.1 795.54l106.75 0c9.64,0 17.48,7.86 17.48,17.48l0 106.77c0,9.62 -7.84,17.48 -17.48,17.48l-106.75 0c-9.64,0 -17.48,-7.86 -17.48,-17.48l0 -106.77c0,-9.62 7.84,-17.48 17.48,-17.48z"/>
   <path class="fil0" d="M772.7 57.23c28.58,0 50.81,22.45 50.81,50.8 0,113.57 0,227.15 0,340.7 11.18,113.96 107.95,203.77 224.74,203.77 66.69,0 133.39,0 200.07,0 26.65,0 48.42,21.8 48.42,48.42 0,98.69 0,197.36 0,296.04 0,26.63 -21.77,48.42 -48.42,48.42 -73.29,0 -192.8,-9.61 -260.26,5.47 -92.39,20.78 -163.82,98.59 -174.99,194.13l0 181.93c0,21.74 -17.77,39.51 -39.51,39.51l-235.29 0c-21.72,0 -39.5,-17.77 -39.5,-39.51l0 -235.27c0,-21.74 17.78,-39.52 39.5,-39.52l151.7 0c14.55,-0.76 28.29,-2.95 42.47,-6.36 54.58,-13.62 101.43,-47.22 132.3,-92.5 25.54,-37.55 39.12,-81.2 39.12,-126.63l0 -2 0 -1.32 0 -1.34 0 -1.34 0 -1.34 0 -1.32 0 -1.34 0 -1.34 0 -1.34 0 -1.32 0 -1.34 0 -1.32 0 -1.34 0 -1.34 0 -1.32 0 -1.36 0 -1.32 0 -1.34 0 -1.34 0 -1.32 0 -1.34 0 -1.34 0 -1.32 0 -1.36 0 -1.32 0 -1.34 0 -1.34 0 -1.32 0 -1.34 0 -1.34 0 -1.32 0 -1.34 0 -1.34 0 -1.32 0 -1.36 0 -1.32 0 -1.34 0 -1.34 0 -1.32 0 -1.34 0 -1.34 0 -1.32 0 -1.34 0 -1.32 0 -1.34 0 -1.34 0 -1.34 0 -1.34 0 -1.32 0 -1.34 0 -1.34 0 -1.32 0 -1.34 0 -1.34 0 -1.32 0 -1.36 0 -1.32 0 -1.34 0 -1.34 0 -1.32 0 -1.34 0 -1.34 0 -1.32 0 -1.36 0 -1.32 0 -32.72c0,-124.2 -101.61,-225.82 -225.82,-225.82 -107.3,0 -214.61,0 -321.91,0 -27.95,0 -50.8,-22.87 -50.8,-50.8 0,-140.62 0,-281.24 0,-421.86 0,-27.95 22.85,-50.8 50.8,-50.8 138.87,0 277.71,0 416.57,0zm-82.12 1409.21c-1.62,0.19 -3.26,0.31 -4.93,0.31l-41.88 0 0 -0.31 46.81 0zm-77.3 -214.12l85.28 0c7.88,0 14.33,6.44 14.33,14.33l0 85.26c0,7.88 -6.45,14.31 -14.33,14.31l-85.28 0c-7.88,0 -14.31,-6.43 -14.31,-14.31l0 -85.26c0,-7.89 6.43,-14.33 14.31,-14.33zm417.95 -495.04l2.15 0 2.16 0 2.17 0 2.14 0 2.16 0 2.17 0 2.16 0 2.16 0 2.17 0 2.14 0 2.16 0 2.17 0 2.16 0 2.15 0 2.16 0 2.16 0 2.15 0 2.18 0 2.14 0 2.15 0 2.18 0 2.16 0 2.15 0 2.16 0 2.16 0 2.15 0 2.16 0 2.17 0 2.14 0 2.18 0 2.15 0 2.16 0 2.16 0 2.15 0 2.16 0 2.16 0 2.17 0 2.16 0 2.14 0 2.17 0 2.16 0 2.15 0 2.16 0 2.16 0 2.15 0 2.18 0 2.15 0 2.14 0 2.18 0 2.15 0 2.16 0 2.18 0 2.15 0 2.16 0 2.16 0 2.15 0 2.16 0 2.16 0 2.15 0 2.16 0 2.17 0 2.16 0 2.16 0 2.15 0 0.02 0 0.56 0 0.01 0 0.58 0.01 0 0 0.57 0.06 0 0 0.56 0.03 0 0 0.57 0.07 0 0 0.56 0.09 0.02 0 0.54 0.08 0 0 0.55 0.11 0 0 0.54 0.12 0.02 0 1.06 0.28 0.02 0 0.52 0.16 0 0 0.52 0.17 0.02 0 0.5 0.19 0 0 0.52 0.19 0 0 0.51 0.21 0.02 0 0.48 0.23 0.02 0 0.49 0.22 0 0 0.48 0.25 0.49 0.26 0 0 0.47 0.26 0.47 0.28 0.47 0.29 0 0 0.45 0.3 0 0 0.45 0.31 0 0 0.44 0.31 0 0 0.43 0.33 0 0 0.84 0.7 0 0 0.4 0.37 0 0 0.4 0.36 0.38 0.38 0.38 0.39 0.37 0.4 0.36 0.41 0 0 0.35 0.4 0 0 0.35 0.44 0 0 0.33 0.42 0.63 0.9 0 0 0.29 0.43 0 0.02 0.3 0.45 0.28 0.47 0 0.02 0.26 0.45 0 0 0.26 0.49 0 0.02 0.24 0.47 0 0.01 0.25 0.49 0 0 0.2 0.51 0 0 0.21 0.5 0 0 0.21 0.52 0 0 0.18 0.52 0 0 0.17 0.53 0 0 0.16 0.52 0 0.02 0.15 0.53 0 0 0.12 0.53 0 0.01 0.13 0.54 0 0 0.1 0.56 0 0.02 0.1 0.54 0 0 0.07 0.55 0 0.02 0.07 0.56 0 0 0.06 0.55 0 0.02 0.03 0.56 0 0.01 0.04 0.58 0 0 0 0.57 0 0.02 0 2.16 0 2.15 0 2.16 0 2.16 0 2.15 0 2.16 0 2.16 0 2.15 0 2.18 0 2.15 0 2.16 0 2.16 0 2.15 0 2.16 0 2.16 0 2.15 0 2.18 0 2.15 0 2.16 0 2.16 0 2.15 0 2.16 0 2.18 0 2.13 0 2.18 0 2.16 0 2.15 0 2.16 0 2.16 0 2.15 0 2.16 0 2.17 0 2.14 0 2.16 0 2.17 0 2.16 0 2.14 0 2.19 0 2.14 0 2.17 0 2.16 0 2.16 0 2.15 0 2.16 0 2.16 0 2.15 0 2.16 0 2.17 0 2.14 0 2.18 0 2.15 0 2.14 0 2.18 0 2.15 0 2.16 0 2.16 0 2.15 0 2.18 0 2.16 0 2.15 0 2.16 0 2.16 0 2.17 0 2.14 0 0.02 0 0.57 0 0 -0.04 0.57 0 0 -0.03 0.58 0 0.02 -0.06 0.55 0 0 -0.07 0.58 0 0 -0.07 0.55 0 0 -0.1 0.56 0 0 -0.1 0.54 0 0.02 -0.13 0.53 0 0 -0.12 0.54 0 0.02 -0.15 0.54 0 0 -0.16 0.52 0 0 -0.17 0.52 0 0 -0.18 0.53 0 0.01 -0.21 0.49 0 0 -0.21 0.5 0 0.02 -0.2 0.51 0 0 -0.25 0.48 0 0.02 -0.24 0.49 0 0 -0.26 0.47 0 0.01 -0.26 0.47 0 0 -0.28 0.47 -0.3 0.46 0 0 -0.29 0.47 0 0 -0.63 0.87 -0.33 0.43 0 0 -0.35 0.42 0 0.01 -0.35 0.42 0 0 -0.36 0.38 -0.37 0.4 -0.38 0.41 -0.38 0.38 -0.4 0.36 0 0 -0.4 0.35 0 0.02 -0.84 0.69 0 0 -0.43 0.33 0 0 -0.44 0.32 0 0 -0.45 0.31 0 0 -0.45 0.3 0 0 -0.47 0.27 -0.47 0.3 -0.47 0.26 0 0 -0.49 0.26 -0.48 0.25 0 0 -0.49 0.22 -0.02 0 -0.48 0.23 -0.02 0 -0.51 0.21 0 0 -0.52 0.19 0 0 -0.5 0.19 -0.02 0 -0.52 0.17 0 0 -0.52 0.16 -0.02 0 -1.06 0.28 -0.02 0 -0.54 0.12 0 0 -0.55 0.1 0 0 -0.54 0.11 -0.02 0 -0.56 0.07 0 0 -0.57 0.05 0 0 -0.56 0.07 0 0 -0.57 0.03 0 0 -0.58 0.02 -0.01 0 -0.56 0 -0.02 0 -2.15 0 -2.16 0 -2.16 0 -2.17 0 -2.16 0 -2.15 0 -2.16 0 -2.16 0 -2.15 0 -2.16 0 -2.16 0 -2.15 0 -2.18 0 -2.16 0 -2.15 0 -2.18 0 -2.14 0 -2.15 0 -2.18 0 -2.15 0 -2.16 0 -2.16 0 -2.15 0 -2.16 0 -2.17 0 -2.14 0 -2.16 0 -2.17 0 -2.16 0 -2.16 0 -2.15 0 -2.16 0 -2.16 0 -2.15 0 -2.18 0 -2.14 0 -2.17 0 -2.16 0 -2.15 0 -2.16 0 -2.16 0 -2.15 0 -2.16 0 -2.18 0 -2.15 0 -2.14 0 -2.18 0 -2.15 0 -2.16 0 -2.16 0 -2.15 0 -2.16 0 -2.17 0 -2.16 0 -2.14 0 -2.17 0 -2.16 0 -2.16 0 -2.17 0 -2.16 0 -2.14 0 -2.17 0 -2.16 0 -2.15 0 -0.02 0 -0.05 0 -0.09 0 -0.07 0 -0.07 0 -0.09 0 -0.07 0 -0.07 0 -0.07 0 -0.06 -0.02 -0.09 0 -0.07 0 -0.07 0 -0.09 0 -0.07 0 -0.07 0 -0.05 0 -0.02 0 -0.07 0 -0.08 -0.01 -0.07 -0.02 -0.07 0 -0.07 0 -0.09 0 -0.07 0 -0.03 0 -0.04 0 -0.08 -0.02 -0.07 -0.02 -0.09 0 -0.05 0 -0.07 -0.01 -0.09 0 -0.09 -0.02 0 0 -0.05 0 -0.07 -0.02 -0.07 0 -0.09 -0.01 -0.06 0 -0.07 0 -0.07 -0.02 -0.07 0 0 0 -0.09 0 -0.07 -0.02 -0.07 -0.02 -0.07 -0.01 -0.14 -0.02 -0.09 0 -0.05 0 -0.01 -0.02 -0.07 -0.02 -0.07 0 -0.14 -0.03 -0.07 0 -0.09 -0.02 -0.07 -0.02 -0.03 0 -0.02 -0.01 -0.09 -0.02 -0.07 0 -0.07 -0.02 -0.07 -0.02 -0.07 -0.01 -0.07 0 -0.07 -0.02 -0.03 0 -0.04 -0.02 -0.06 -0.02 -0.07 -0.01 -0.06 0 -0.05 0 -0.05 -0.04 -0.05 0 -0.07 -0.01 -0.05 -0.02 -0.04 0 -0.02 0 -0.1 -0.04 -0.07 -0.01 -0.09 -0.02 -0.07 -0.02 -0.05 -0.02 -0.05 0 -0.33 -0.1 -0.07 0 -0.26 -0.09 -0.06 0 -0.05 -0.03 -0.05 0 -0.03 -0.02 -0.02 0 -0.05 -0.02 -0.07 -0.02 -0.04 -0.01 -0.07 -0.02 -0.03 -0.02 -0.04 0 -0.01 -0.01 -0.07 -0.02 -0.06 -0.02 -0.05 -0.02 -0.03 -0.01 -0.06 -0.02 -0.07 -0.02 -0.05 -0.02 -0.05 -0.01 -0.1 -0.04 -0.06 -0.02 -0.03 -0.01 -0.07 -0.04 -0.05 0 -0.05 -0.03 -0.06 0 -0.05 -0.04 -0.05 -0.02 -0.07 -0.01 -0.04 -0.02 -0.05 -0.02 -0.05 -0.03 -0.05 0 -0.05 -0.04 -0.06 0 -0.05 -0.03 -0.17 -0.05 -0.23 -0.11 -0.28 -0.1 -0.1 -0.05 -0.4 -0.18 0 0 -0.38 -0.17 -0.75 -0.39 -0.33 -0.17 -0.05 -0.03 -0.37 -0.2 -0.07 -0.03 -0.29 -0.17 -1.07 -0.68 -0.01 -0.02 -0.32 -0.23 -0.14 -0.08 -0.2 -0.16 -0.33 -0.24 -0.34 -0.25 0 -0.01 -0.33 -0.26 -0.08 -0.07 -0.25 -0.21 -0.17 -0.14 -0.14 -0.12 -0.26 -0.25 -0.05 -0.03 -0.32 -0.3 -0.03 -0.03 -0.26 -0.25 -0.12 -0.13 -0.18 -0.18 -0.21 -0.23 -0.06 -0.06 -0.28 -0.3 -0.04 -0.04 -0.26 -0.27 -0.1 -0.11 -0.16 -0.21 -0.17 -0.21 -0.11 -0.12 -0.24 -0.31 -0.02 -0.02 -0.26 -0.33 -0.05 -0.08 -0.19 -0.25 -0.14 -0.19 -0.11 -0.14 -0.21 -0.29 -0.03 -0.07 -0.23 -0.35 -0.03 -0.05 -0.19 -0.3 -0.11 -0.16 -0.1 -0.2 -0.16 -0.27 -0.07 -0.08 -0.21 -0.37 0 -0.02 -0.19 -0.36 -0.07 -0.12 -0.12 -0.26 -0.1 -0.23 -0.07 -0.14 -0.16 -0.36 -0.02 -0.04 -0.19 -0.4 -0.03 -0.07 -0.12 -0.29 -0.07 -0.23 -0.07 -0.17 -0.13 -0.32 -0.03 -0.08 -0.14 -0.4 -0.03 -0.06 -0.11 -0.36 -0.05 -0.16 -0.07 -0.24 -0.12 -0.42 -0.12 -0.4 0 0 -0.11 -0.43 -0.02 -0.13 -0.06 -0.29 -0.07 -0.24 -0.04 -0.2 -0.05 -0.36 -0.02 -0.04 -0.07 -0.43 -0.02 -0.09 -0.05 -0.35 -0.03 -0.2 -0.02 -0.23 -0.03 -0.35 -0.02 -0.09 -0.04 -0.43 0 -0.03 -0.03 -0.42 0 -0.18 -0.02 -0.26 -0.02 -0.31 0 -0.14 0 -0.43 0 -0.02 0 -2.14 0 -2.17 0 -2.16 0 -2.16 0 -2.15 0 -2.16 0 -2.18 0 -2.15 0 -2.16 0 -2.16 0 -2.15 0 -2.18 0 -2.14 0 -2.15 0 -2.18 0 -2.14 0 -2.17 0 -2.16 0 -2.15 0 -2.16 0 -2.16 0 -2.15 0 -2.16 0 -2.16 0 -2.17 0 -2.14 0 -2.19 0 -2.14 0 -2.16 0 -2.17 0 -2.16 0 -2.14 0 -2.17 0 -2.16 0 -2.15 0 -2.16 0 -2.16 0 -2.15 0 -2.16 0 -2.18 0 -2.13 0 -2.18 0 -2.16 0 -2.15 0 -2.16 0 -2.16 0 -2.15 0 -2.18 0 -2.15 0 -2.16 0 -2.16 0 -2.15 0 -2.16 0 -2.16 0 -2.15 0 -2.18 0 -2.15 0 -2.16 0 -2.16 0 -2.15 0 -2.16 0 -2.16 0 -2.15 0 -2.16 0 -0.02 0 -0.24 0 -0.24 0 -0.09 0.02 -0.18 0.02 -0.24 0 -0.17 0 -0.07 0.02 -0.26 0.01 -0.25 0 0 0.02 -0.24 0.04 -0.26 0 -0.05 0 -0.19 0.03 -0.25 0.02 -0.14 0.01 -0.1 0.04 -0.25 0.03 -0.2 0 -0.02 0.04 -0.26 0.05 -0.23 0.02 -0.05 0.03 -0.19 0.04 -0.25 0.02 -0.12 0.03 -0.12 0.05 -0.24 0.05 -0.19 0 -0.04 0.07 -0.24 0.13 -0.45 0.05 -0.25 0.02 -0.1 0.05 -0.12 0.07 -0.25 0.05 -0.15 0.03 -0.06 0.06 -0.24 0.07 -0.23 0 0 0.08 -0.22 0.09 -0.23 0.03 -0.07 0.04 -0.15 0.09 -0.23 0.07 -0.14 0.03 -0.07 0.09 -0.22 0.07 -0.21 0.01 -0.02 0.09 -0.21 0.11 -0.23 0.03 -0.05 0.05 -0.15 0.11 -0.23 0.07 -0.12 0.03 -0.09 0.11 -0.21 0.08 -0.19 0.04 -0.02 0.1 -0.21 0.11 -0.22 0.01 -0.04 0.11 -0.15 0.1 -0.21 0.07 -0.11 0.05 -0.1 0.13 -0.21 0.08 -0.16 0.04 -0.05 0.12 -0.19 0.24 -0.38 0.04 -0.05 0.24 -0.37 0.14 -0.17 0.42 -0.59 0.14 -0.18 0.14 -0.19 0.05 -0.05 0.1 -0.14 0.14 -0.17c4.14,-5.1 10.47,-8.35 17.5,-8.35l0.02 0zm-560.91 -556.57l188.2 0c12.63,0 22.94,10.34 22.94,22.96l0 190.59c0,12.52 -10.24,22.94 -22.94,22.94l-188.2 0c-12.61,0 -22.94,-10.33 -22.94,-22.94l0 -190.59c0,-12.62 10.33,-22.96 22.94,-22.96z"/>
  </g>
 </g>
</svg>
